C:\Users\r0593348\3dpredictsim\Results\batch_windlass\Pog_s1_tmt_bCst_d05_k1500_WL40_ig24_act_TTC_GRF.mot
nRows=27
nColumns=19

name C:\Users\r0593348\3dpredictsim\Results\batch_windlass\Pog_s1_tmt_bCst_d05_k1500_WL40_ig24_act_TTC_GRF.mot
datacolumns 19
datarows 27
range 0.0000000000 0.3075044816
endheader
time 	ground_force_vx	ground_force_vy	ground_force_vz	ground_force_px	ground_force_py	ground_force_pz	1_ground_force_vx	1_ground_force_vy	1_ground_force_vz	1_ground_force_px	1_ground_force_py	1_ground_force_pz	ground_torque_x	ground_torque_y	ground_torque_z	1_ground_torque_x	1_ground_torque_y	1_ground_torque_z
        0.0000000000	      -65.2707695965	       45.2515989585	       10.3870127850	        0.1690309257	        0.0000000000	        0.0551834632	       93.5714113798	      411.1397764528	       -1.0423774448	       -0.3422383093	        0.0000000000	       -0.0395482301	        0.0000000000	        0.0000000000	        0.0000000000	        0.0000000000	        0.0000000000	        0.0000000000	
        0.0118270954	     -126.5593057289	      107.6132372421	       24.9545920415	        0.1807938485	        0.0000000000	        0.0533227485	       63.1533097946	      309.0153002666	       -5.0094872771	       -0.3340474403	        0.0000000000	       -0.0360492074	        0.0000000000	        0.0000000000	        0.0000000000	        0.0000000000	        0.0000000000	        0.0000000000	
        0.0236541909	     -111.2871735748	      237.6388531093	       31.9845978677	        0.1895315511	        0.0000000000	        0.0523881102	       40.2608852145	      216.5840830565	      -14.6588983518	       -0.3229049684	        0.0000000000	       -0.0310687435	        0.0000000000	        0.0000000000	        0.0000000000	        0.0000000000	        0.0000000000	        0.0000000000	
        0.0354812863	      -69.7267444689	      463.0956068757	        0.4964790168	        0.1973638137	        0.0000000000	        0.0527807630	       31.1543298975	      173.2099719792	      -16.4704881624	       -0.3189613112	        0.0000000000	       -0.0290477395	        0.0000000000	        0.0000000000	        0.0000000000	        0.0000000000	        0.0000000000	        0.0000000000	
        0.0473083818	      -97.3814307842	      713.4174029495	      -16.0999392932	        0.2083195751	        0.0000000000	        0.0552727461	       28.0494446149	      132.8159198025	      -14.9033485718	       -0.3186030698	        0.0000000000	       -0.0290306754	        0.0000000000	        0.0000000000	        0.0000000000	        0.0000000000	        0.0000000000	        0.0000000000	
        0.0591354772	     -125.1809016440	      841.5421987414	      -21.5346465009	        0.2150918187	        0.0000000000	        0.0567850711	       19.6750676414	       83.7967057358	      -14.8668884935	       -0.3182144678	        0.0000000000	       -0.0293109211	        0.0000000000	        0.0000000000	        0.0000000000	        0.0000000000	        0.0000000000	        0.0000000000	
        0.0709625727	     -132.7177794752	      871.7463987011	      -23.4276984714	        0.2203514441	        0.0000000000	        0.0576536492	       -0.9390577099	       34.4708306046	       -8.2632175846	       -0.3199431497	        0.0000000000	       -0.0292195997	        0.0000000000	        0.0000000000	        0.0000000000	        0.0000000000	        0.0000000000	        0.0000000000	
        0.0827896681	     -130.9502503873	      869.3999082361	      -22.8241118914	        0.2257680588	        0.0000000000	        0.0579414863	        0.1499469401	       -0.1475171715	        0.0000915437	        0.0000000000	        0.0000000000	        0.0000000000	        0.0000000000	        0.0000000000	        0.0000000000	        0.0000000000	        0.0000000000	        0.0000000000	
        0.0946167636	     -122.3646174282	      844.9064950358	      -19.8077054865	        0.2315421076	        0.0000000000	        0.0577451805	        0.0009140611	       -0.0007849343	       -0.0000247307	        0.0000000000	        0.0000000000	        0.0000000000	        0.0000000000	        0.0000000000	        0.0000000000	        0.0000000000	        0.0000000000	        0.0000000000	
        0.1064438590	     -109.4154527824	      803.9223009816	      -19.5694851838	        0.2377101614	        0.0000000000	        0.0573778524	        0.0000785287	       -0.0000587427	       -0.0000034225	        0.0000000000	        0.0000000000	        0.0000000000	        0.0000000000	        0.0000000000	        0.0000000000	        0.0000000000	        0.0000000000	        0.0000000000	
        0.1182709545	      -94.9238171064	      757.9771364142	      -18.6684423582	        0.2427647826	        0.0000000000	        0.0570360331	        0.0000720656	       -0.0000487231	       -0.0000032203	        0.0000000000	        0.0000000000	        0.0000000000	        0.0000000000	        0.0000000000	        0.0000000000	        0.0000000000	        0.0000000000	        0.0000000000	
        0.1300980499	      -82.1611806307	      717.2757884406	      -18.5272823835	        0.2469786781	        0.0000000000	        0.0568103162	        0.0007119943	       -0.0004462470	       -0.0000305183	        0.0000000000	        0.0000000000	        0.0000000000	        0.0000000000	        0.0000000000	        0.0000000000	        0.0000000000	        0.0000000000	        0.0000000000	
        0.1419251454	      -70.8764564999	      686.1674985955	      -18.9837469959	        0.2507005507	        0.0000000000	        0.0566816250	       -0.0032686768	        0.0019212448	        0.0001338432	        0.0000000000	        0.0000000000	        0.0000000000	        0.0000000000	        0.0000000000	        0.0000000000	        0.0000000000	        0.0000000000	        0.0000000000	
        0.1537522408	      -60.1254137731	      660.4019152122	      -19.5097338841	        0.2541388145	        0.0000000000	        0.0566313538	       -0.0065425748	        0.0035936877	        0.0003038642	        0.0000000000	        0.0000000000	        0.0000000000	        0.0000000000	        0.0000000000	        0.0000000000	        0.0000000000	        0.0000000000	        0.0000000000	
        0.1655793363	      -50.3172932760	      637.6987693108	      -19.9101979963	        0.2575036883	        0.0000000000	        0.0566352456	       -0.0035514323	        0.0018394754	        0.0001771167	        0.0000000000	        0.0000000000	        0.0000000000	        0.0000000000	        0.0000000000	        0.0000000000	        0.0000000000	        0.0000000000	        0.0000000000	
        0.1774064317	      -41.6660169218	      618.3782890509	      -20.4026541845	        0.2609824968	        0.0000000000	        0.0566612723	       -0.0022267462	        0.0010972922	        0.0001168457	        0.0000000000	        0.0000000000	        0.0000000000	        0.0000000000	        0.0000000000	        0.0000000000	        0.0000000000	        0.0000000000	        0.0000000000	
        0.1892335271	      -34.0378957665	      602.4401122738	      -20.8942954065	        0.2646124677	        0.0000000000	        0.0566909884	       -0.0018534807	        0.0008748490	        0.0001003048	        0.0000000000	        0.0000000000	        0.0000000000	        0.0000000000	        0.0000000000	        0.0000000000	        0.0000000000	        0.0000000000	        0.0000000000	
        0.2010606226	      -27.1890961381	      589.9117964141	      -21.2118693546	        0.2684096772	        0.0000000000	        0.0567104258	       -0.0021076900	        0.0009578144	        0.0001155039	        0.0000000000	        0.0000000000	        0.0000000000	        0.0000000000	        0.0000000000	        0.0000000000	        0.0000000000	        0.0000000000	        0.0000000000	
        0.2128877180	      -21.0588206540	      581.1408743344	      -21.5033321148	        0.2725924171	        0.0000000000	        0.0566858695	       -0.0032232746	        0.0014164439	        0.0001758321	        0.0000000000	        0.0000000000	        0.0000000000	        0.0000000000	        0.0000000000	        0.0000000000	        0.0000000000	        0.0000000000	        0.0000000000	
        0.2247148135	      -16.7462479932	      576.5663721334	      -21.6527706651	        0.2771459413	        0.0000000000	        0.0565957198	       -0.0063206936	        0.0026964583	        0.0003380753	        0.0000000000	        0.0000000000	        0.0000000000	        0.0000000000	        0.0000000000	        0.0000000000	        0.0000000000	        0.0000000000	        0.0000000000	
        0.2365419089	      -13.3797855945	      575.5630725148	      -21.8352346099	        0.2818980882	        0.0000000000	        0.0564408152	       -0.0146856103	        0.0061035171	        0.0007613208	        0.0000000000	        0.0000000000	        0.0000000000	        0.0000000000	        0.0000000000	        0.0000000000	        0.0000000000	        0.0000000000	        0.0000000000	
        0.2483690044	      -10.5850005636	      576.2349908385	      -21.8549313058	        0.2867471508	        0.0000000000	        0.0562321822	       -0.0368335375	        0.0149646643	        0.0018381342	        0.0000000000	        0.0000000000	        0.0000000000	        0.0000000000	        0.0000000000	        0.0000000000	        0.0000000000	        0.0000000000	        0.0000000000	
        0.2601960998	       -8.1151341577	      576.7755031343	      -22.1206570963	        0.2915358676	        0.0000000000	        0.0559912366	       -0.0912385260	        0.0363597795	        0.0043748526	        0.0000000000	        0.0000000000	        0.0000000000	        0.0000000000	        0.0000000000	        0.0000000000	        0.0000000000	        0.0000000000	        0.0000000000	
        0.2720231953	       -5.4922849421	      576.6406883306	      -22.4838129604	        0.2962682133	        0.0000000000	        0.0557303901	       -0.2077946307	        0.0814983321	        0.0095992643	        0.0000000000	        0.0000000000	        0.0000000000	        0.0000000000	        0.0000000000	        0.0000000000	        0.0000000000	        0.0000000000	        0.0000000000	
        0.2838502907	       -2.9568960116	      575.3848091002	      -22.8151131175	        0.3009333515	        0.0000000000	        0.0554539193	       -0.4151971960	        0.1607863264	        0.0185585260	        0.0000000000	        0.0000000000	        0.0000000000	        0.0000000000	        0.0000000000	        0.0000000000	        0.0000000000	        0.0000000000	        0.0000000000	
        0.2956773862	       -0.5204074047	      572.7202411254	      -22.7125567344	        0.3054387522	        0.0000000000	        0.0551798586	       -0.7093011050	        0.2720891542	        0.0306583332	        0.0000000000	        0.0000000000	        0.0000000000	        0.0000000000	        0.0000000000	        0.0000000000	        0.0000000000	        0.0000000000	        0.0000000000	
        0.3075044816	        1.6915559552	      568.5452995501	      -22.3278774621	        0.3097692428	        0.0000000000	        0.0549081249	       -1.0324421699	        0.3934849193	        0.0427615119	        0.0000000000	        0.0000000000	        0.0000000000	        0.0000000000	        0.0000000000	        0.0000000000	        0.0000000000	        0.0000000000	        0.0000000000	
